HIERARCHY
ROOT Hips
{
    OFFSET 0.000000 0.000000 0.000000
    CHANNELS 6 Xposition Yposition Zposition Zrotation Xrotation Yrotation
    JOINT Spine
    {
        OFFSET -0.000000 14.517291 0.000000
        CHANNELS 3 Zrotation Xrotation Yrotation
        JOINT Spine1
        {
            OFFSET -0.000000 37.558300 0.000000
            CHANNELS 3 Zrotation Xrotation Yrotation
            JOINT Neck
            {
                OFFSET -0.000000 37.404057 3.400369
                CHANNELS 3 Zrotation Xrotation Yrotation
                JOINT Head
                {
                    OFFSET -0.000000 24.785618 -3.540803
                    CHANNELS 3 Zrotation Xrotation Yrotation
                    End Site
                    {
                        OFFSET -0.000000 35.408028 0.000000
                    }
                }
            }
            JOINT LeftShoulder
            {
                OFFSET 6.992933 33.973492 -0.192664
                CHANNELS 3 Zrotation Xrotation Yrotation
                JOINT LeftArm
                {
                    OFFSET 21.527611 0.000000 0.000000
                    CHANNELS 3 Zrotation Xrotation Yrotation
                    JOINT LeftForeArm
                    {
                        OFFSET 56.353916 0.000000 0.000000
                        CHANNELS 3 Zrotation Xrotation Yrotation
                        JOINT LeftHand
                        {
                            OFFSET 47.774071 0.000000 0.000000
                            CHANNELS 3 Zrotation Xrotation Yrotation
                            End Site
                            {
                                OFFSET 26.556021 0.000000 0.000000
                            }
                        }
                    }
                }
            }
            JOINT RightShoulder
            {
                OFFSET -7.065357 33.973492 -0.192664
                CHANNELS 3 Zrotation Xrotation Yrotation
                JOINT RightArm
                {
                    OFFSET -21.527611 0.000000 0.000000
                    CHANNELS 3 Zrotation Xrotation Yrotation
                    JOINT RightForeArm
                    {
                        OFFSET -56.353916 0.000000 0.000000
                        CHANNELS 3 Zrotation Xrotation Yrotation
                        JOINT RightHand
                        {
                            OFFSET -47.774071 0.000000 0.000000
                            CHANNELS 3 Zrotation Xrotation Yrotation
                            End Site
                            {
                                OFFSET -26.556021 0.000000 0.000000
                            }
                        }
                    }
                }
            }
        }
    }
    JOINT LeftUpLeg
    {
        OFFSET 17.704014 0.000000 0.000000
        CHANNELS 3 Zrotation Xrotation Yrotation
        JOINT LeftLeg
        {
            OFFSET -0.000000 -81.181816 0.000000
            CHANNELS 3 Zrotation Xrotation Yrotation
            JOINT LeftFoot
            {
                OFFSET -0.000000 -62.821102 0.000000
                CHANNELS 3 Zrotation Xrotation Yrotation
                JOINT LeftToeBase
                {
                    OFFSET -0.000000 -11.507608 26.556021
                    CHANNELS 3 Zrotation Xrotation Yrotation
                    End Site
                    {
                        OFFSET -0.000000 0.000000 7.081605
                    }
                }
            }
        }
    }
    JOINT RightUpLeg
    {
        OFFSET -17.704014 0.000000 0.000000
        CHANNELS 3 Zrotation Xrotation Yrotation
        JOINT RightLeg
        {
            OFFSET -0.000000 -81.181816 0.000000
            CHANNELS 3 Zrotation Xrotation Yrotation
            JOINT RightFoot
            {
                OFFSET -0.000000 -62.821102 0.000000
                CHANNELS 3 Zrotation Xrotation Yrotation
                JOINT RightToeBase
                {
                    OFFSET -0.000000 -11.507608 26.556021
                    CHANNELS 3 Zrotation Xrotation Yrotation
                    End Site
                    {
                        OFFSET -0.000000 0.000000 7.081605
                    }
                }
            }
        }
    }
}
MOTION
Frames:    6
Frame Time:    0.008333
-3.019891    150.198181    -71.307671    -0.169633    -6.072004    38.157429    -0.485208    2.841341    0.577689    -3.237817    -1.950819    0.133586    0.031525    4.513313    -18.178238    14.804880    0.570775    -16.968449    2.376379    8.348454    -14.254057    -32.383953    18.719229    -42.359402    -3.930081    -28.850056    -116.379387    -12.563113    -32.761635    -16.160810    -0.097131    10.192671    -6.360533    29.418707    15.190409    39.900928    -7.468570    5.188262    37.169914    -21.348677    0.761692    35.628719    18.827528    -3.109786    -2.755273    -23.781622    46.164059    -15.282246    11.885839    -33.907585    54.892868    0.000000    0.000000    0.000000    -28.425917    -24.364792    -20.160990    7.896487    20.587006    -14.043251    17.163786    32.844658    -17.593729    0.000000    0.000000    0.000000    
-2.706925    150.457138    -72.208153    -0.194450    -6.071388    37.917904    -0.503737    2.799513    0.545246    -3.101689    -1.830989    0.128378    0.022410    4.351048    -18.033756    14.658138    0.687873    -16.850031    2.296019    8.378398    -14.173223    -32.437981    18.622705    -42.472157    -5.648062    -28.693621    -116.905281    -13.116431    -34.935165    -16.217426    -0.223737    10.202394    -6.267329    29.311737    15.259609    40.126347    -7.519437    5.122176    36.952156    -21.268372    0.690015    35.789223    18.486469    -3.129526    -2.698294    -23.792843    45.901527    -15.220297    12.100743    -33.632389    55.064575    0.000000    0.000000    0.000000    -28.021662    -24.430193    -20.051718    7.996447    20.970184    -13.802050    16.328659    32.784451    -17.156961    0.000000    0.000000    0.000000    
-2.413157    150.716949    -73.076042    -0.238240    -6.073062    37.689133    -0.471262    2.732324    0.516265    -3.056263    -1.698190    0.123525    0.122454    4.313410    -17.916992    14.514583    0.656470    -16.753429    2.274384    8.406701    -14.133420    -32.504894    18.573191    -42.455719    -5.870584    -28.722599    -116.927727    -13.064942    -35.275284    -16.173738    -0.266757    10.216197    -6.181379    29.192463    15.303764    40.355103    -7.554439    5.075549    36.703011    -21.218660    0.613982    35.978481    18.188566    -3.145688    -2.449778    -23.610670    45.702938    -15.638082    12.432483    -33.306477    55.420067    0.000000    0.000000    0.000000    -27.600470    -24.489021    -19.912474    8.139718    21.368578    -13.783217    15.596053    32.574890    -16.942533    0.000000    0.000000    0.000000    
-2.139601    150.982361    -73.906456    -0.290000    -6.081030    37.519867    -0.440988    2.683021    0.462756    -2.991186    -1.599293    0.109581    0.151309    4.228061    -17.800900    14.442103    0.733926    -16.654076    2.232474    8.436669    -14.129821    -32.501850    18.672815    -42.446934    -6.109428    -28.941481    -117.000122    -13.207941    -35.793995    -16.166492    -0.265633    10.261769    -6.133884    29.002819    15.396310    40.604294    -7.627935    4.970194    36.470573    -21.198421    0.490440    36.132122    17.940359    -3.165718    -2.209207    -23.456486    45.444023    -15.673112    12.505842    -33.016567    55.317482    0.000000    0.000000    0.000000    -27.176788    -24.495062    -19.851171    8.234378    21.756433    -13.764843    15.345837    32.043129    -17.121859    0.000000    0.000000    0.000000    
-1.869683    151.246994    -74.686142    -0.325995    -6.073277    37.375607    -0.415731    2.592618    0.407999    -2.992422    -1.459930    0.094874    0.284640    4.193601    -17.695856    14.339425    0.721977    -16.570770    2.274647    8.500016    -14.131144    -32.545898    18.813601    -42.291267    -3.646171    -29.535770    -116.098732    -12.501906    -33.031250    -15.997935    -0.211906    10.317984    -6.102095    28.849571    15.420835    40.820316    -7.715236    4.884126    36.289410    -21.090464    0.427802    36.268375    17.684551    -3.158420    -1.855910    -23.163029    45.185345    -15.844545    12.526864    -32.754494    55.148670    0.000000    0.000000    0.000000    -26.779339    -24.449244    -19.818401    8.374851    22.123703    -13.938246    15.182217    31.187798    -17.400303    0.000000    0.000000    0.000000    
-1.621691    151.512970    -75.435150    -0.397065    -6.057146    37.279202    -0.404432    2.499821    0.333215    -2.923675    -1.387768    0.072897    0.391316    4.202059    -17.607119    14.218830    0.719502    -16.505062    2.251878    8.548459    -14.170422    -32.574196    18.914921    -42.276440    -3.593081    -29.722759    -116.030540    -12.536405    -33.125004    -16.044384    -0.165154    10.353345    -6.068358    28.735554    15.322253    40.974258    -7.604327    4.977733    36.117054    -21.134470    0.420325    36.447983    17.488680    -3.198882    -1.509504    -22.907213    44.936020    -16.012987    12.526031    -32.474171    54.932457    0.000000    0.000000    0.000000    -26.384438    -24.366343    -19.685970    8.611721    22.427855    -14.208283    15.090343    30.173050    -17.831245    0.000000    0.000000    0.000000    
